name 900006_16Moments.mot
datacolumns 7
datarows 81
range 0.15000001 0.81666666
endheader

                time	          RHipMoment	          LHipMoment	         RKneeMoment	         LKneeMoment	        RAnkleMoment	        LAnkleMoment	
          0.15000001	        -21.68743896	        446.60635376	        -23.67030907	        155.15167236	        -17.55702019	        -46.42084885	
          0.15833333	        -29.28782082	        456.28234863	        -22.21621895	        160.54946899	        -17.69388580	        -31.59221649	
          0.16666667	        -46.68413925	        456.81280518	        -16.29411316	        161.59390259	        -16.90626335	        -18.75743103	
          0.17500000	        -65.48455811	        440.78878784	         -8.48076153	        164.53553772	        -15.30491066	         -8.79671955	
          0.18333334	        -78.52496338	        412.85351563	         -1.61873090	        168.11108398	        -13.21697140	          0.45840874	
          0.19166666	        -84.45178986	        372.63702393	          2.86338592	        170.30348206	        -11.13444233	         12.64620399	
          0.20000000	        -85.11634827	        319.65921021	          4.71658039	        176.57246399	         -9.43976307	         23.48379707	
          0.20833334	        -81.00364685	        271.68185425	          3.57393789	        180.63496399	         -8.25241566	         33.46811295	
          0.21666667	        -72.23513794	        239.26512146	         -0.65733665	        174.57150269	         -7.54987001	         49.66849518	
          0.22499999	        -61.99566650	        216.60966492	         -6.41640949	        169.46139526	         -7.23864651	         63.57887650	
          0.23333333	        -54.91351318	        202.82621765	        -11.31390285	        163.26303101	         -7.19806385	         79.10813141	
          0.24166667	        -51.99144363	        191.27174377	        -14.25909328	        155.88484192	         -7.22491980	         97.49157715	
          0.25000000	        -50.82836151	        180.87640381	        -15.49009037	        146.70512390	         -7.06369448	        118.07883453	
          0.25833333	        -51.54510117	        169.84573364	        -15.38428402	        137.33489990	         -6.75727606	        139.96006775	
          0.26666665	        -56.54441452	        159.32275391	        -13.90394115	        121.48686218	         -6.48422766	        168.50285339	
          0.27500001	        -66.60182953	        139.93205261	        -10.78767490	        107.51726532	         -6.28284883	        196.76782227	
          0.28333333	        -76.86484528	        114.51423645	         -7.51161289	         94.87048340	         -6.21767426	        225.87896729	
          0.29166669	        -81.41594696	         98.12982941	         -6.11548424	         74.47360229	         -6.30557585	        262.11297607	
          0.30000001	        -79.96148682	         86.17211151	         -6.92502546	         54.19057465	         -6.52858067	        298.54629517	
          0.30833334	        -74.72216034	         82.69950104	         -9.58451557	         31.58410645	         -6.85988903	        336.29620361	
          0.31666666	        -66.22468567	         85.31194305	        -13.70180702	          8.33619308	         -7.08651447	        374.85345459	
          0.32499999	        -56.61381531	        101.88706207	        -18.42831802	        -21.18855476	         -7.10678816	        417.39941406	
          0.33333331	        -50.80754852	        115.00061798	        -22.58926010	        -44.53456879	         -7.01592207	        457.02407837	
          0.34166667	        -53.61222458	        125.53831482	        -24.55613327	        -69.01437378	         -6.87314415	        499.55050659	
          0.34999999	        -64.40739441	        129.95658875	        -23.83864212	        -93.44644928	         -6.78921843	        544.64123535	
          0.35833335	        -76.43958282	        122.64981842	        -22.36576080	       -109.06088257	         -6.93375921	        586.96118164	
          0.36666667	        -82.87377167	        112.59313202	        -22.68691826	       -122.62468719	         -7.35682249	        630.15924072	
          0.37500000	        -80.35942841	        101.27233124	        -26.41378212	       -135.61940002	         -8.00852203	        673.76324463	
          0.38333333	        -69.63798523	         85.45460510	        -33.06192017	       -146.18313599	         -8.70328331	        715.81243896	
          0.39166665	        -53.00895691	         67.61673737	        -41.30759430	       -153.71362305	         -9.27607536	        754.90771484	
          0.39999998	        -33.90699387	         59.54765320	        -49.62284470	       -166.51739502	         -9.70317268	        793.65325928	
          0.40833336	        -17.61761284	         51.53364944	        -55.99050903	       -179.01237488	         -9.99219322	        828.47174072	
          0.41666669	         -7.24437571	         41.59558487	        -59.05691910	       -189.44496155	        -10.14276028	        857.44940186	
          0.42500001	         -4.01603556	         36.43255234	        -58.09405899	       -204.15951538	        -10.19110680	        886.24822998	
          0.43333334	         -4.31080580	         28.48401070	        -54.79814529	       -215.38642883	        -10.27922249	        910.21801758	
          0.44166666	         -1.72427821	         15.03393459	        -52.45775986	       -222.24409485	        -10.47289753	        930.24169922	
          0.44999999	          4.27958679	         -0.76577437	        -51.71203613	       -227.33395386	        -10.69682693	        948.29791260	
          0.45833331	         10.86001396	        -10.42819118	        -52.08124161	       -235.83047485	        -10.89693928	        965.77569580	
          0.46666664	         16.84211540	        -26.62154579	        -53.73946762	       -236.30538940	        -11.05746841	        975.80981445	
          0.47500002	         19.59996986	        -38.19698715	        -55.93600464	       -240.17726135	        -11.18359947	        986.60589600	
          0.48333335	         19.44053078	        -45.85664368	        -59.01498032	       -247.63310242	        -11.30533123	        997.92706299	
          0.49166667	         19.14500046	        -63.64374161	        -63.76519012	       -247.61642456	        -11.35331917	       1004.10827637	
          0.50000000	         22.83642387	        -75.59664917	        -70.76845551	       -252.35603333	        -11.27113819	       1013.43688965	
          0.50833333	         35.23850250	        -84.97068787	        -80.90608215	       -258.79776001	        -11.07126999	       1024.04077148	
          0.51666665	         56.60330963	        -97.17317963	        -93.46302795	       -263.21911621	        -10.68659306	       1036.68103027	
          0.52499998	         83.87442017	       -112.68757629	       -106.86081696	       -262.41043091	        -10.10335350	       1046.93957520	
          0.53333336	        113.44541931	       -117.51287079	       -119.55208588	       -267.79742432	         -9.28761864	       1062.81457520	
          0.54166669	        140.55767822	       -137.98902893	       -129.51278687	       -261.55209351	         -8.22850704	       1075.66748047	
          0.55000001	        162.12799072	       -165.55581665	       -135.84591675	       -251.29057312	         -7.05260515	       1088.25598145	
          0.55833334	        177.70375061	       -191.80743408	       -139.09104919	       -244.58378601	         -5.88356543	       1104.64868164	
          0.56666666	        189.10002136	       -229.84381104	       -140.34741211	       -229.99353027	         -4.83792543	       1118.65039063	
          0.57499999	        197.24633789	       -274.24728394	       -140.18818665	       -210.33427429	         -3.99521303	       1132.78393555	
          0.58333331	        199.40788269	       -312.24758911	       -137.87432861	       -190.94952393	         -3.42379117	       1147.10522461	
          0.59166664	        191.09265137	       -337.28692627	       -132.16685486	       -172.07072449	         -3.21083069	       1160.18627930	
          0.60000002	        164.48191833	       -358.82119751	       -120.13878632	       -144.56047058	         -3.31441665	       1167.55163574	
          0.60833335	        113.84815979	       -356.69076538	        -99.09513855	       -123.03960419	         -3.59010410	       1173.95983887	
          0.61666667	         42.74784088	       -345.15283203	        -69.83635712	       -101.33929443	         -4.00245762	       1175.62463379	
          0.62500000	        -38.30749893	       -333.57766724	        -36.60173798	        -77.46524048	         -4.53084373	       1171.27832031	
          0.63333333	        -97.35675049	       -328.43853760	        -10.18946838	        -50.63234329	         -8.19552803	       1161.78210449	
          0.64166665	         89.42104340	       -319.15277100	        -68.65745544	        -30.70437431	        -29.02167130	       1151.32824707	
          0.64999998	        561.19238281	       -328.80545044	       -223.68084717	         -1.51784492	        -65.07973480	       1133.47082520	
          0.65833330	        467.15591431	       -345.49972534	       -156.26483154	         29.40601540	        -81.16949463	       1110.20141602	
          0.66666663	        287.26107788	       -356.59646606	        -29.00494385	         54.85326767	       -107.95672607	       1080.99340820	
          0.67500001	         51.60667038	       -372.49816895	        138.69854736	         87.84634399	       -141.84487915	       1038.22521973	
          0.68333334	         17.86241913	       -368.45828247	        192.24922180	        112.58305359	       -154.93174744	        989.84600830	
          0.69166666	        251.08505249	       -355.77886963	        104.53276825	        130.88610840	       -147.11904907	        935.26263428	
          0.69999999	        385.36166382	       -346.81524658	         74.48391724	        150.55171204	       -144.40419006	        871.30334473	
          0.70833331	        342.12448120	       -339.70349121	        131.77191162	        171.04667664	       -146.54559326	        795.60272217	
          0.71666664	        249.80213928	       -312.25805664	        202.29063416	        173.44075012	       -144.35514832	        717.84887695	
          0.72499996	        200.72663879	       -283.43188477	        241.52914429	        171.32937622	       -136.38038635	        628.98657227	
          0.73333329	        199.56379700	       -269.27416992	        253.69281006	        174.24314880	       -125.05959320	        528.96331787	
          0.74166667	        200.09893799	       -224.29945374	        262.35562134	        149.72438049	       -114.35305023	        431.26748657	
          0.75000000	        196.50392151	       -180.12950134	        267.96591187	        123.68597412	       -103.96269226	        330.40142822	
          0.75833333	        196.14326477	       -139.88529968	        271.91687012	         93.12683868	        -96.19781494	        232.58410645	
          0.76666665	        206.21258545	       -117.32688904	        272.86108398	         63.12836456	        -89.59838104	        140.27716064	
          0.77499998	        225.32733154	       -120.06932068	        271.96542358	         42.03733444	        -84.31233215	         63.22974014	
          0.78333330	        246.87663269	       -143.50064087	        270.97521973	         39.41788864	        -81.02679443	          8.95723057	
          0.79166663	        273.15087891	       -145.57337952	        265.24932861	         32.22420120	        -74.28073883	        -15.42870617	
          0.80000001	        292.60449219	        -76.28209686	        259.06759644	        -14.71910000	        -66.18149567	        -20.59604645	
          0.80833334	        300.79028320	        -74.33371735	        253.32972717	        -18.25470924	        -52.78177643	        -20.54092789	
          0.81666666	        291.13595581	        -82.23799133	        249.53176880	        -16.89821625	        -34.13331604	        -19.37686157	
